<mxfile host="" modified="2021-01-13T19:47:16.912Z" agent="5.0 (Windows NT 6.2; Win64; x64) AppleWebKit/537.36 (KHTML, like Gecko) Chrome/84.0.4147.105 Safari/537.36" etag="7ozzuf0svwlCYF9qS8qq" version="13.7.9" type="embed"><diagram id="C5RBs43oDa-KdzZeNtuy" name="Page-1"><mxGraphModel dx="2043" dy="1963" grid="1" gridSize="10" guides="1" tooltips="1" connect="1" arrows="1" fold="1" page="1" pageScale="1" pageWidth="827" pageHeight="1169" math="0" shadow="0"><root><mxCell id="WIyWlLk6GJQsqaUBKTNV-0"/><mxCell id="WIyWlLk6GJQsqaUBKTNV-1" parent="WIyWlLk6GJQsqaUBKTNV-0"/><mxCell id="e2i2qU4APALc9A-j0tBI-0" value="Game" style="swimlane;fontStyle=2;align=center;verticalAlign=top;childLayout=stackLayout;horizontal=1;startSize=26;horizontalStack=0;resizeParent=1;resizeLast=0;collapsible=1;marginBottom=0;rounded=0;shadow=0;strokeWidth=1;" parent="WIyWlLk6GJQsqaUBKTNV-1" vertex="1"><mxGeometry x="350" y="-440" width="170" height="120" as="geometry"><mxRectangle x="230" y="140" width="160" height="26" as="alternateBounds"/></mxGeometry></mxCell><mxCell id="e2i2qU4APALc9A-j0tBI-54" value="+map: BattleMap" style="text;align=left;verticalAlign=top;spacingLeft=4;spacingRight=4;overflow=hidden;rotatable=0;points=[[0,0.5],[1,0.5]];portConstraint=eastwest;spacing=0;" parent="e2i2qU4APALc9A-j0tBI-0" vertex="1"><mxGeometry y="26" width="170" height="20" as="geometry"/></mxCell><mxCell id="e2i2qU4APALc9A-j0tBI-53" value="-bombers: Array&lt;Bomber&gt;" style="text;align=left;verticalAlign=top;spacingLeft=4;spacingRight=4;overflow=hidden;rotatable=0;points=[[0,0.5],[1,0.5]];portConstraint=eastwest;spacing=0;" parent="e2i2qU4APALc9A-j0tBI-0" vertex="1"><mxGeometry y="46" width="170" height="20" as="geometry"/></mxCell><mxCell id="e2i2qU4APALc9A-j0tBI-77" value="-bombs: MutableList&lt;Bomb&gt;" style="text;align=left;verticalAlign=top;spacingLeft=4;spacingRight=4;overflow=hidden;rotatable=0;points=[[0,0.5],[1,0.5]];portConstraint=eastwest;spacing=0;" parent="e2i2qU4APALc9A-j0tBI-0" vertex="1"><mxGeometry y="66" width="170" height="20" as="geometry"/></mxCell><mxCell id="e2i2qU4APALc9A-j0tBI-4" value="" style="line;html=1;strokeWidth=1;align=left;verticalAlign=middle;spacingTop=-1;spacingLeft=3;spacingRight=3;rotatable=0;labelPosition=right;points=[];portConstraint=eastwest;" parent="e2i2qU4APALc9A-j0tBI-0" vertex="1"><mxGeometry y="86" width="170" height="8" as="geometry"/></mxCell><mxCell id="e2i2qU4APALc9A-j0tBI-90" value="+restart(): void" style="text;align=left;verticalAlign=top;spacingLeft=4;spacingRight=4;overflow=hidden;rotatable=0;points=[[0,0.5],[1,0.5]];portConstraint=eastwest;spacing=0;" parent="e2i2qU4APALc9A-j0tBI-0" vertex="1"><mxGeometry y="94" width="170" height="20" as="geometry"/></mxCell><mxCell id="e2i2qU4APALc9A-j0tBI-99" style="edgeStyle=orthogonalEdgeStyle;rounded=0;orthogonalLoop=1;jettySize=auto;html=1;dashed=1;" parent="WIyWlLk6GJQsqaUBKTNV-1" source="e2i2qU4APALc9A-j0tBI-25" target="e2i2qU4APALc9A-j0tBI-78" edge="1"><mxGeometry relative="1" as="geometry"/></mxCell><mxCell id="e2i2qU4APALc9A-j0tBI-25" value="«abstract»&#10;Bomber" style="swimlane;fontStyle=2;align=center;verticalAlign=top;childLayout=stackLayout;horizontal=1;startSize=40;horizontalStack=0;resizeParent=1;resizeLast=0;collapsible=1;marginBottom=0;rounded=0;shadow=0;strokeWidth=1;" parent="WIyWlLk6GJQsqaUBKTNV-1" vertex="1"><mxGeometry x="720" y="-312" width="200" height="174" as="geometry"><mxRectangle x="230" y="140" width="160" height="26" as="alternateBounds"/></mxGeometry></mxCell><mxCell id="e2i2qU4APALc9A-j0tBI-26" value="+info: BomberInfo" style="text;align=left;verticalAlign=top;spacingLeft=4;spacingRight=4;overflow=hidden;rotatable=0;points=[[0,0.5],[1,0.5]];portConstraint=eastwest;spacing=0;" parent="e2i2qU4APALc9A-j0tBI-25" vertex="1"><mxGeometry y="40" width="200" height="20" as="geometry"/></mxCell><mxCell id="e2i2qU4APALc9A-j0tBI-69" value="+hp: int" style="text;align=left;verticalAlign=top;spacingLeft=4;spacingRight=4;overflow=hidden;rotatable=0;points=[[0,0.5],[1,0.5]];portConstraint=eastwest;rounded=0;shadow=0;html=0;spacing=0;" parent="e2i2qU4APALc9A-j0tBI-25" vertex="1"><mxGeometry y="60" width="200" height="20" as="geometry"/></mxCell><mxCell id="e2i2qU4APALc9A-j0tBI-28" value="+x: int" style="text;align=left;verticalAlign=top;spacingLeft=4;spacingRight=4;overflow=hidden;rotatable=0;points=[[0,0.5],[1,0.5]];portConstraint=eastwest;rounded=0;shadow=0;html=0;spacing=0;" parent="e2i2qU4APALc9A-j0tBI-25" vertex="1"><mxGeometry y="80" width="200" height="20" as="geometry"/></mxCell><mxCell id="e2i2qU4APALc9A-j0tBI-51" value="+y: int" style="text;align=left;verticalAlign=top;spacingLeft=4;spacingRight=4;overflow=hidden;rotatable=0;points=[[0,0.5],[1,0.5]];portConstraint=eastwest;rounded=0;shadow=0;html=0;spacing=0;" parent="e2i2qU4APALc9A-j0tBI-25" vertex="1"><mxGeometry y="100" width="200" height="20" as="geometry"/></mxCell><mxCell id="e2i2qU4APALc9A-j0tBI-59" value="-actions: Map&lt;EnumAction, Action&gt;" style="text;align=left;verticalAlign=top;spacingLeft=4;spacingRight=4;overflow=hidden;rotatable=0;points=[[0,0.5],[1,0.5]];portConstraint=eastwest;rounded=0;shadow=0;html=0;spacing=0;" parent="e2i2qU4APALc9A-j0tBI-25" vertex="1"><mxGeometry y="120" width="200" height="20" as="geometry"/></mxCell><mxCell id="e2i2qU4APALc9A-j0tBI-29" value="" style="line;html=1;strokeWidth=1;align=left;verticalAlign=middle;spacingTop=-1;spacingLeft=3;spacingRight=3;rotatable=0;labelPosition=right;points=[];portConstraint=eastwest;" parent="e2i2qU4APALc9A-j0tBI-25" vertex="1"><mxGeometry y="140" width="200" height="8" as="geometry"/></mxCell><mxCell id="e2i2qU4APALc9A-j0tBI-84" value="+deployBomb(): Bomb" style="text;align=left;verticalAlign=top;spacingLeft=4;spacingRight=4;overflow=hidden;rotatable=0;points=[[0,0.5],[1,0.5]];portConstraint=eastwest;rounded=0;shadow=0;html=0;spacing=0;" parent="e2i2qU4APALc9A-j0tBI-25" vertex="1"><mxGeometry y="148" width="200" height="20" as="geometry"/></mxCell><mxCell id="e2i2qU4APALc9A-j0tBI-31" value="Bot" style="swimlane;fontStyle=0;align=center;verticalAlign=top;childLayout=stackLayout;horizontal=1;startSize=26;horizontalStack=0;resizeParent=1;resizeLast=0;collapsible=1;marginBottom=0;rounded=0;shadow=0;strokeWidth=1;" parent="WIyWlLk6GJQsqaUBKTNV-1" vertex="1"><mxGeometry x="635" y="-54" width="160" height="70" as="geometry"><mxRectangle x="130" y="380" width="160" height="26" as="alternateBounds"/></mxGeometry></mxCell><mxCell id="e2i2qU4APALc9A-j0tBI-34" value="" style="line;html=1;strokeWidth=1;align=left;verticalAlign=middle;spacingTop=-1;spacingLeft=3;spacingRight=3;rotatable=0;labelPosition=right;points=[];portConstraint=eastwest;" parent="e2i2qU4APALc9A-j0tBI-31" vertex="1"><mxGeometry y="26" width="160" height="8" as="geometry"/></mxCell><mxCell id="e2i2qU4APALc9A-j0tBI-37" value="" style="endArrow=block;endSize=10;endFill=0;shadow=0;strokeWidth=1;rounded=0;edgeStyle=elbowEdgeStyle;elbow=vertical;" parent="WIyWlLk6GJQsqaUBKTNV-1" source="e2i2qU4APALc9A-j0tBI-31" target="e2i2qU4APALc9A-j0tBI-25" edge="1"><mxGeometry width="160" relative="1" as="geometry"><mxPoint x="790" y="-67" as="sourcePoint"/><mxPoint x="790" y="-67" as="targetPoint"/></mxGeometry></mxCell><mxCell id="e2i2qU4APALc9A-j0tBI-38" value="Player" style="swimlane;fontStyle=0;align=center;verticalAlign=top;childLayout=stackLayout;horizontal=1;startSize=26;horizontalStack=0;resizeParent=1;resizeLast=0;collapsible=1;marginBottom=0;rounded=0;shadow=0;strokeWidth=1;" parent="WIyWlLk6GJQsqaUBKTNV-1" vertex="1"><mxGeometry x="845" y="-54" width="160" height="70" as="geometry"><mxRectangle x="340" y="380" width="170" height="26" as="alternateBounds"/></mxGeometry></mxCell><mxCell id="e2i2qU4APALc9A-j0tBI-40" value="" style="line;html=1;strokeWidth=1;align=left;verticalAlign=middle;spacingTop=-1;spacingLeft=3;spacingRight=3;rotatable=0;labelPosition=right;points=[];portConstraint=eastwest;" parent="e2i2qU4APALc9A-j0tBI-38" vertex="1"><mxGeometry y="26" width="160" height="8" as="geometry"/></mxCell><mxCell id="e2i2qU4APALc9A-j0tBI-41" value="" style="endArrow=block;endSize=10;endFill=0;shadow=0;strokeWidth=1;rounded=0;edgeStyle=elbowEdgeStyle;elbow=vertical;" parent="WIyWlLk6GJQsqaUBKTNV-1" source="e2i2qU4APALc9A-j0tBI-38" target="e2i2qU4APALc9A-j0tBI-25" edge="1"><mxGeometry width="160" relative="1" as="geometry"><mxPoint x="800" y="103" as="sourcePoint"/><mxPoint x="900" y="1" as="targetPoint"/></mxGeometry></mxCell><mxCell id="e2i2qU4APALc9A-j0tBI-57" style="edgeStyle=orthogonalEdgeStyle;rounded=0;orthogonalLoop=1;jettySize=auto;html=1;entryX=0.5;entryY=0;entryDx=0;entryDy=0;" parent="WIyWlLk6GJQsqaUBKTNV-1" source="e2i2qU4APALc9A-j0tBI-54" target="zkfFHV4jXpPFQw0GAbJ--0" edge="1"><mxGeometry relative="1" as="geometry"/></mxCell><mxCell id="e2i2qU4APALc9A-j0tBI-58" style="edgeStyle=orthogonalEdgeStyle;rounded=0;orthogonalLoop=1;jettySize=auto;html=1;entryX=0.5;entryY=0;entryDx=0;entryDy=0;" parent="WIyWlLk6GJQsqaUBKTNV-1" source="e2i2qU4APALc9A-j0tBI-53" target="e2i2qU4APALc9A-j0tBI-25" edge="1"><mxGeometry relative="1" as="geometry"/></mxCell><mxCell id="e2i2qU4APALc9A-j0tBI-60" value="Action" style="swimlane;fontStyle=2;align=center;verticalAlign=top;childLayout=stackLayout;horizontal=1;startSize=30;horizontalStack=0;resizeParent=1;resizeLast=0;collapsible=1;marginBottom=0;rounded=0;shadow=0;strokeWidth=1;" parent="WIyWlLk6GJQsqaUBKTNV-1" vertex="1"><mxGeometry x="970" y="-202" width="160" height="80" as="geometry"><mxRectangle x="230" y="140" width="160" height="26" as="alternateBounds"/></mxGeometry></mxCell><mxCell id="e2i2qU4APALc9A-j0tBI-61" value="+cooldown: int" style="text;align=left;verticalAlign=top;spacingLeft=4;spacingRight=4;overflow=hidden;rotatable=0;points=[[0,0.5],[1,0.5]];portConstraint=eastwest;spacing=0;" parent="e2i2qU4APALc9A-j0tBI-60" vertex="1"><mxGeometry y="30" width="160" height="20" as="geometry"/></mxCell><mxCell id="e2i2qU4APALc9A-j0tBI-62" value="+previousOccurence: Date" style="text;align=left;verticalAlign=top;spacingLeft=4;spacingRight=4;overflow=hidden;rotatable=0;points=[[0,0.5],[1,0.5]];portConstraint=eastwest;rounded=0;shadow=0;html=0;spacing=0;" parent="e2i2qU4APALc9A-j0tBI-60" vertex="1"><mxGeometry y="50" width="160" height="20" as="geometry"/></mxCell><mxCell id="e2i2qU4APALc9A-j0tBI-68" style="edgeStyle=orthogonalEdgeStyle;rounded=0;orthogonalLoop=1;jettySize=auto;html=1;entryX=0;entryY=0.25;entryDx=0;entryDy=0;" parent="WIyWlLk6GJQsqaUBKTNV-1" source="e2i2qU4APALc9A-j0tBI-59" target="e2i2qU4APALc9A-j0tBI-60" edge="1"><mxGeometry relative="1" as="geometry"/></mxCell><mxCell id="e2i2qU4APALc9A-j0tBI-74" style="edgeStyle=orthogonalEdgeStyle;rounded=0;orthogonalLoop=1;jettySize=auto;html=1;" parent="WIyWlLk6GJQsqaUBKTNV-1" source="e2i2qU4APALc9A-j0tBI-71" target="zkfFHV4jXpPFQw0GAbJ--17" edge="1"><mxGeometry relative="1" as="geometry"/></mxCell><mxCell id="e2i2qU4APALc9A-j0tBI-82" style="edgeStyle=orthogonalEdgeStyle;rounded=0;orthogonalLoop=1;jettySize=auto;html=1;entryX=0.5;entryY=0;entryDx=0;entryDy=0;" parent="WIyWlLk6GJQsqaUBKTNV-1" source="e2i2qU4APALc9A-j0tBI-77" target="e2i2qU4APALc9A-j0tBI-78" edge="1"><mxGeometry relative="1" as="geometry"/></mxCell><mxCell id="e2i2qU4APALc9A-j0tBI-91" value="Server" style="swimlane;fontStyle=2;align=center;verticalAlign=top;childLayout=stackLayout;horizontal=1;startSize=26;horizontalStack=0;resizeParent=1;resizeLast=0;collapsible=1;marginBottom=0;rounded=0;shadow=0;strokeWidth=1;" parent="WIyWlLk6GJQsqaUBKTNV-1" vertex="1"><mxGeometry x="270" y="-800" width="180" height="100" as="geometry"><mxRectangle x="230" y="140" width="160" height="26" as="alternateBounds"/></mxGeometry></mxCell><mxCell id="e2i2qU4APALc9A-j0tBI-92" value="-players: MutableList&lt;Account&gt;" style="text;align=left;verticalAlign=top;spacingLeft=4;spacingRight=4;overflow=hidden;rotatable=0;points=[[0,0.5],[1,0.5]];portConstraint=eastwest;spacing=0;" parent="e2i2qU4APALc9A-j0tBI-91" vertex="1"><mxGeometry y="26" width="180" height="20" as="geometry"/></mxCell><mxCell id="7N_UdTAp0qMkY1RBXTl0-7" value="-lobbies: MutableList&lt;Lobby&gt;" style="text;align=left;verticalAlign=top;spacingLeft=4;spacingRight=4;overflow=hidden;rotatable=0;points=[[0,0.5],[1,0.5]];portConstraint=eastwest;spacing=0;" parent="e2i2qU4APALc9A-j0tBI-91" vertex="1"><mxGeometry y="46" width="180" height="20" as="geometry"/></mxCell><mxCell id="e2i2qU4APALc9A-j0tBI-95" value="" style="line;html=1;strokeWidth=1;align=left;verticalAlign=middle;spacingTop=-1;spacingLeft=3;spacingRight=3;rotatable=0;labelPosition=right;points=[];portConstraint=eastwest;" parent="e2i2qU4APALc9A-j0tBI-91" vertex="1"><mxGeometry y="66" width="180" height="8" as="geometry"/></mxCell><mxCell id="e2i2qU4APALc9A-j0tBI-97" style="edgeStyle=orthogonalEdgeStyle;rounded=0;orthogonalLoop=1;jettySize=auto;html=1;" parent="WIyWlLk6GJQsqaUBKTNV-1" source="e2i2qU4APALc9A-j0tBI-92" target="7N_UdTAp0qMkY1RBXTl0-4" edge="1"><mxGeometry relative="1" as="geometry"/></mxCell><mxCell id="7N_UdTAp0qMkY1RBXTl0-0" value="Lobby" style="swimlane;fontStyle=2;align=center;verticalAlign=top;childLayout=stackLayout;horizontal=1;startSize=26;horizontalStack=0;resizeParent=1;resizeLast=0;collapsible=1;marginBottom=0;rounded=0;shadow=0;strokeWidth=1;" parent="WIyWlLk6GJQsqaUBKTNV-1" vertex="1"><mxGeometry x="120" y="-660" width="230" height="174" as="geometry"><mxRectangle x="230" y="140" width="160" height="26" as="alternateBounds"/></mxGeometry></mxCell><mxCell id="rXmhBrRMQD72T8PBJJ-l-2" value="+id: int" style="text;align=left;verticalAlign=top;spacingLeft=4;spacingRight=4;overflow=hidden;rotatable=0;points=[[0,0.5],[1,0.5]];portConstraint=eastwest;spacing=0;" parent="7N_UdTAp0qMkY1RBXTl0-0" vertex="1"><mxGeometry y="26" width="230" height="20" as="geometry"/></mxCell><mxCell id="7N_UdTAp0qMkY1RBXTl0-1" value="+map: MapInfo" style="text;align=left;verticalAlign=top;spacingLeft=4;spacingRight=4;overflow=hidden;rotatable=0;points=[[0,0.5],[1,0.5]];portConstraint=eastwest;spacing=0;" parent="7N_UdTAp0qMkY1RBXTl0-0" vertex="1"><mxGeometry y="46" width="230" height="20" as="geometry"/></mxCell><mxCell id="7N_UdTAp0qMkY1RBXTl0-8" value="+players: MutableList&lt;LobbyPlayer&gt;" style="text;align=left;verticalAlign=top;spacingLeft=4;spacingRight=4;overflow=hidden;rotatable=0;points=[[0,0.5],[1,0.5]];portConstraint=eastwest;spacing=0;" parent="7N_UdTAp0qMkY1RBXTl0-0" vertex="1"><mxGeometry y="66" width="230" height="20" as="geometry"/></mxCell><mxCell id="7N_UdTAp0qMkY1RBXTl0-3" value="+gameStarted: Boolean" style="text;align=left;verticalAlign=top;spacingLeft=4;spacingRight=4;overflow=hidden;rotatable=0;points=[[0,0.5],[1,0.5]];portConstraint=eastwest;spacing=0;" parent="7N_UdTAp0qMkY1RBXTl0-0" vertex="1"><mxGeometry y="86" width="230" height="20" as="geometry"/></mxCell><mxCell id="6" value="+characters: Map&lt;Position, Character&gt;" style="text;align=left;verticalAlign=top;spacingLeft=4;spacingRight=4;overflow=hidden;rotatable=0;points=[[0,0.5],[1,0.5]];portConstraint=eastwest;spacing=0;" vertex="1" parent="7N_UdTAp0qMkY1RBXTl0-0"><mxGeometry y="106" width="230" height="20" as="geometry"/></mxCell><mxCell id="7N_UdTAp0qMkY1RBXTl0-21" value="+game: Game?" style="text;align=left;verticalAlign=top;spacingLeft=4;spacingRight=4;overflow=hidden;rotatable=0;points=[[0,0.5],[1,0.5]];portConstraint=eastwest;spacing=0;" parent="7N_UdTAp0qMkY1RBXTl0-0" vertex="1"><mxGeometry y="126" width="230" height="20" as="geometry"/></mxCell><mxCell id="7N_UdTAp0qMkY1RBXTl0-30" value="" style="line;html=1;strokeWidth=1;align=left;verticalAlign=middle;spacingTop=-1;spacingLeft=3;spacingRight=3;rotatable=0;labelPosition=right;points=[];portConstraint=eastwest;" parent="7N_UdTAp0qMkY1RBXTl0-0" vertex="1"><mxGeometry y="146" width="230" height="8" as="geometry"/></mxCell><mxCell id="7N_UdTAp0qMkY1RBXTl0-32" value="+start(): void" style="text;align=left;verticalAlign=top;spacingLeft=4;spacingRight=4;overflow=hidden;rotatable=0;points=[[0,0.5],[1,0.5]];portConstraint=eastwest;spacing=0;" parent="7N_UdTAp0qMkY1RBXTl0-0" vertex="1"><mxGeometry y="154" width="230" height="20" as="geometry"/></mxCell><mxCell id="7N_UdTAp0qMkY1RBXTl0-15" style="edgeStyle=orthogonalEdgeStyle;rounded=0;orthogonalLoop=1;jettySize=auto;html=1;exitX=0;exitY=0.5;exitDx=0;exitDy=0;" parent="WIyWlLk6GJQsqaUBKTNV-1" source="e2i2qU4APALc9A-j0tBI-72" target="7N_UdTAp0qMkY1RBXTl0-9" edge="1"><mxGeometry relative="1" as="geometry"/></mxCell><mxCell id="7N_UdTAp0qMkY1RBXTl0-16" style="edgeStyle=orthogonalEdgeStyle;rounded=0;orthogonalLoop=1;jettySize=auto;html=1;" parent="WIyWlLk6GJQsqaUBKTNV-1" source="7N_UdTAp0qMkY1RBXTl0-7" target="7N_UdTAp0qMkY1RBXTl0-0" edge="1"><mxGeometry relative="1" as="geometry"/></mxCell><mxCell id="7N_UdTAp0qMkY1RBXTl0-17" style="edgeStyle=orthogonalEdgeStyle;rounded=0;orthogonalLoop=1;jettySize=auto;html=1;" parent="WIyWlLk6GJQsqaUBKTNV-1" source="7N_UdTAp0qMkY1RBXTl0-8" target="0" edge="1"><mxGeometry relative="1" as="geometry"/></mxCell><mxCell id="7N_UdTAp0qMkY1RBXTl0-24" value="BomberInfo" style="swimlane;fontStyle=2;align=center;verticalAlign=top;childLayout=stackLayout;horizontal=1;startSize=30;horizontalStack=0;resizeParent=1;resizeLast=0;collapsible=1;marginBottom=0;rounded=0;shadow=0;strokeWidth=1;" parent="WIyWlLk6GJQsqaUBKTNV-1" vertex="1"><mxGeometry x="970" y="-302" width="160" height="80" as="geometry"><mxRectangle x="230" y="140" width="160" height="26" as="alternateBounds"/></mxGeometry></mxCell><mxCell id="7N_UdTAp0qMkY1RBXTl0-25" value="+name: String" style="text;align=left;verticalAlign=top;spacingLeft=4;spacingRight=4;overflow=hidden;rotatable=0;points=[[0,0.5],[1,0.5]];portConstraint=eastwest;spacing=0;" parent="7N_UdTAp0qMkY1RBXTl0-24" vertex="1"><mxGeometry y="30" width="160" height="20" as="geometry"/></mxCell><mxCell id="7N_UdTAp0qMkY1RBXTl0-26" value="+character: Character" style="text;align=left;verticalAlign=top;spacingLeft=4;spacingRight=4;overflow=hidden;rotatable=0;points=[[0,0.5],[1,0.5]];portConstraint=eastwest;rounded=0;shadow=0;html=0;spacing=0;" parent="7N_UdTAp0qMkY1RBXTl0-24" vertex="1"><mxGeometry y="50" width="160" height="20" as="geometry"/></mxCell><mxCell id="7N_UdTAp0qMkY1RBXTl0-27" style="edgeStyle=orthogonalEdgeStyle;rounded=0;orthogonalLoop=1;jettySize=auto;html=1;" parent="WIyWlLk6GJQsqaUBKTNV-1" source="e2i2qU4APALc9A-j0tBI-26" target="7N_UdTAp0qMkY1RBXTl0-24" edge="1"><mxGeometry relative="1" as="geometry"/></mxCell><mxCell id="7N_UdTAp0qMkY1RBXTl0-34" style="edgeStyle=orthogonalEdgeStyle;rounded=0;orthogonalLoop=1;jettySize=auto;html=1;exitX=0;exitY=0.5;exitDx=0;exitDy=0;entryX=0.25;entryY=0;entryDx=0;entryDy=0;" parent="WIyWlLk6GJQsqaUBKTNV-1" source="7N_UdTAp0qMkY1RBXTl0-1" target="7N_UdTAp0qMkY1RBXTl0-9" edge="1"><mxGeometry relative="1" as="geometry"/></mxCell><mxCell id="7N_UdTAp0qMkY1RBXTl0-35" style="edgeStyle=orthogonalEdgeStyle;rounded=0;orthogonalLoop=1;jettySize=auto;html=1;exitX=1;exitY=0.5;exitDx=0;exitDy=0;" parent="WIyWlLk6GJQsqaUBKTNV-1" source="7N_UdTAp0qMkY1RBXTl0-21" target="e2i2qU4APALc9A-j0tBI-0" edge="1"><mxGeometry relative="1" as="geometry"/></mxCell><mxCell id="oa1tAkklV0idXq2eBjgJ-11" value="" style="endArrow=block;endSize=10;endFill=0;shadow=0;strokeWidth=1;rounded=0;edgeStyle=elbowEdgeStyle;elbow=vertical;dashed=1;exitX=0.75;exitY=0;exitDx=0;exitDy=0;" parent="WIyWlLk6GJQsqaUBKTNV-1" source="e2i2qU4APALc9A-j0tBI-25" target="oa1tAkklV0idXq2eBjgJ-3" edge="1"><mxGeometry width="160" relative="1" as="geometry"><mxPoint x="890" y="-320" as="sourcePoint"/><mxPoint x="995" y="-404" as="targetPoint"/></mxGeometry></mxCell><mxCell id="oa1tAkklV0idXq2eBjgJ-12" value="" style="endArrow=block;endSize=10;endFill=0;shadow=0;strokeWidth=1;rounded=0;edgeStyle=elbowEdgeStyle;elbow=vertical;dashed=1;exitX=0.75;exitY=0;exitDx=0;exitDy=0;" parent="WIyWlLk6GJQsqaUBKTNV-1" source="e2i2qU4APALc9A-j0tBI-0" target="oa1tAkklV0idXq2eBjgJ-3" edge="1"><mxGeometry width="160" relative="1" as="geometry"><mxPoint x="830" y="-302.0000000000002" as="sourcePoint"/><mxPoint x="870" y="-420" as="targetPoint"/></mxGeometry></mxCell><mxCell id="oa1tAkklV0idXq2eBjgJ-13" value="" style="endArrow=block;endSize=10;endFill=0;shadow=0;strokeWidth=1;rounded=0;edgeStyle=elbowEdgeStyle;elbow=vertical;dashed=1;entryX=0.5;entryY=1;entryDx=0;entryDy=0;exitX=0.75;exitY=0;exitDx=0;exitDy=0;" parent="WIyWlLk6GJQsqaUBKTNV-1" source="e2i2qU4APALc9A-j0tBI-78" target="oa1tAkklV0idXq2eBjgJ-3" edge="1"><mxGeometry width="160" relative="1" as="geometry"><mxPoint x="830" y="-302.0000000000002" as="sourcePoint"/><mxPoint x="680" y="-480" as="targetPoint"/><Array as="points"><mxPoint x="727" y="-450"/></Array></mxGeometry></mxCell><mxCell id="oa1tAkklV0idXq2eBjgJ-14" value="" style="endArrow=block;endSize=10;endFill=0;shadow=0;strokeWidth=1;rounded=0;edgeStyle=elbowEdgeStyle;elbow=vertical;dashed=1;exitX=0.75;exitY=0;exitDx=0;exitDy=0;" parent="WIyWlLk6GJQsqaUBKTNV-1" source="zkfFHV4jXpPFQw0GAbJ--0" target="oa1tAkklV0idXq2eBjgJ-3" edge="1"><mxGeometry width="160" relative="1" as="geometry"><mxPoint x="445" y="-430" as="sourcePoint"/><mxPoint x="760" y="-500" as="targetPoint"/><Array as="points"><mxPoint x="510" y="-470"/></Array></mxGeometry></mxCell><mxCell id="0" value="LobbyPlayer" style="swimlane;fontStyle=2;align=center;verticalAlign=top;childLayout=stackLayout;horizontal=1;startSize=26;horizontalStack=0;resizeParent=1;resizeLast=0;collapsible=1;marginBottom=0;rounded=0;shadow=0;strokeWidth=1;" parent="WIyWlLk6GJQsqaUBKTNV-1" vertex="1"><mxGeometry x="460" y="-647" width="150" height="126" as="geometry"><mxRectangle x="230" y="140" width="160" height="26" as="alternateBounds"/></mxGeometry></mxCell><mxCell id="1" value="+ready: Boolean" style="text;align=left;verticalAlign=top;spacingLeft=4;spacingRight=4;overflow=hidden;rotatable=0;points=[[0,0.5],[1,0.5]];portConstraint=eastwest;spacing=0;" parent="0" vertex="1"><mxGeometry y="26" width="150" height="20" as="geometry"/></mxCell><mxCell id="CgKhEHebkV1hEXI0vYt8-5" value="+character: Character" style="text;align=left;verticalAlign=top;spacingLeft=4;spacingRight=4;overflow=hidden;rotatable=0;points=[[0,0.5],[1,0.5]];portConstraint=eastwest;spacing=0;" parent="0" vertex="1"><mxGeometry y="46" width="150" height="20" as="geometry"/></mxCell><mxCell id="4" value="+account: Account" style="text;align=left;verticalAlign=top;spacingLeft=4;spacingRight=4;overflow=hidden;rotatable=0;points=[[0,0.5],[1,0.5]];portConstraint=eastwest;spacing=0;" parent="0" vertex="1"><mxGeometry y="66" width="150" height="20" as="geometry"/></mxCell><mxCell id="oa1tAkklV0idXq2eBjgJ-3" value="«interface»&#10;Snapshotable" style="swimlane;fontStyle=2;align=center;verticalAlign=top;childLayout=stackLayout;horizontal=1;startSize=40;horizontalStack=0;resizeParent=1;resizeLast=0;collapsible=1;marginBottom=0;rounded=0;shadow=0;strokeWidth=1;" parent="WIyWlLk6GJQsqaUBKTNV-1" vertex="1"><mxGeometry x="670" y="-639" width="200" height="110" as="geometry"><mxRectangle x="230" y="140" width="160" height="26" as="alternateBounds"/></mxGeometry></mxCell><mxCell id="oa1tAkklV0idXq2eBjgJ-4" value="+getSnapshot(): List&lt;int&gt;" style="text;align=left;verticalAlign=top;spacingLeft=4;spacingRight=4;overflow=hidden;rotatable=0;points=[[0,0.5],[1,0.5]];portConstraint=eastwest;spacing=0;" parent="oa1tAkklV0idXq2eBjgJ-3" vertex="1"><mxGeometry y="40" width="200" height="20" as="geometry"/></mxCell><mxCell id="oa1tAkklV0idXq2eBjgJ-5" value="+setSnapshot(List&lt;int&gt;)" style="text;align=left;verticalAlign=top;spacingLeft=4;spacingRight=4;overflow=hidden;rotatable=0;points=[[0,0.5],[1,0.5]];portConstraint=eastwest;rounded=0;shadow=0;html=0;spacing=0;" parent="oa1tAkklV0idXq2eBjgJ-3" vertex="1"><mxGeometry y="60" width="200" height="20" as="geometry"/></mxCell><mxCell id="oa1tAkklV0idXq2eBjgJ-6" value="+snapshotSize(): int" style="text;align=left;verticalAlign=top;spacingLeft=4;spacingRight=4;overflow=hidden;rotatable=0;points=[[0,0.5],[1,0.5]];portConstraint=eastwest;rounded=0;shadow=0;html=0;spacing=0;" parent="oa1tAkklV0idXq2eBjgJ-3" vertex="1"><mxGeometry y="80" width="200" height="20" as="geometry"/></mxCell><mxCell id="7N_UdTAp0qMkY1RBXTl0-4" value="Account" style="swimlane;fontStyle=2;align=center;verticalAlign=top;childLayout=stackLayout;horizontal=1;startSize=26;horizontalStack=0;resizeParent=1;resizeLast=0;collapsible=1;marginBottom=0;rounded=0;shadow=0;strokeWidth=1;" parent="WIyWlLk6GJQsqaUBKTNV-1" vertex="1"><mxGeometry x="580" y="-774" width="150" height="86" as="geometry"><mxRectangle x="230" y="140" width="160" height="26" as="alternateBounds"/></mxGeometry></mxCell><mxCell id="rXmhBrRMQD72T8PBJJ-l-1" value="+id: int" style="text;align=left;verticalAlign=top;spacingLeft=4;spacingRight=4;overflow=hidden;rotatable=0;points=[[0,0.5],[1,0.5]];portConstraint=eastwest;spacing=0;" parent="7N_UdTAp0qMkY1RBXTl0-4" vertex="1"><mxGeometry y="26" width="150" height="20" as="geometry"/></mxCell><mxCell id="7N_UdTAp0qMkY1RBXTl0-5" value="+name: String" style="text;align=left;verticalAlign=top;spacingLeft=4;spacingRight=4;overflow=hidden;rotatable=0;points=[[0,0.5],[1,0.5]];portConstraint=eastwest;spacing=0;" parent="7N_UdTAp0qMkY1RBXTl0-4" vertex="1"><mxGeometry y="46" width="150" height="20" as="geometry"/></mxCell><mxCell id="7N_UdTAp0qMkY1RBXTl0-23" value="+pictureURL: String" style="text;align=left;verticalAlign=top;spacingLeft=4;spacingRight=4;overflow=hidden;rotatable=0;points=[[0,0.5],[1,0.5]];portConstraint=eastwest;spacing=0;" parent="7N_UdTAp0qMkY1RBXTl0-4" vertex="1"><mxGeometry y="66" width="150" height="20" as="geometry"/></mxCell><mxCell id="14" style="edgeStyle=orthogonalEdgeStyle;rounded=0;orthogonalLoop=1;jettySize=auto;html=1;" edge="1" parent="WIyWlLk6GJQsqaUBKTNV-1" source="4" target="7N_UdTAp0qMkY1RBXTl0-4"><mxGeometry relative="1" as="geometry"/></mxCell><mxCell id="15" style="edgeStyle=orthogonalEdgeStyle;rounded=0;orthogonalLoop=1;jettySize=auto;html=1;entryX=0.5;entryY=0;entryDx=0;entryDy=0;" edge="1" parent="WIyWlLk6GJQsqaUBKTNV-1" source="6" target="8"><mxGeometry relative="1" as="geometry"/></mxCell><mxCell id="e2i2qU4APALc9A-j0tBI-78" value="Bomb" style="swimlane;fontStyle=2;align=center;verticalAlign=top;childLayout=stackLayout;horizontal=1;startSize=26;horizontalStack=0;resizeParent=1;resizeLast=0;collapsible=1;marginBottom=0;rounded=0;shadow=0;strokeWidth=1;" parent="WIyWlLk6GJQsqaUBKTNV-1" vertex="1"><mxGeometry x="475" y="-275" width="160" height="100" as="geometry"><mxRectangle x="230" y="140" width="160" height="26" as="alternateBounds"/></mxGeometry></mxCell><mxCell id="e2i2qU4APALc9A-j0tBI-79" value="+deployed: int" style="text;align=left;verticalAlign=top;spacingLeft=4;spacingRight=4;overflow=hidden;rotatable=0;points=[[0,0.5],[1,0.5]];portConstraint=eastwest;spacing=0;" parent="e2i2qU4APALc9A-j0tBI-78" vertex="1"><mxGeometry y="26" width="160" height="20" as="geometry"/></mxCell><mxCell id="e2i2qU4APALc9A-j0tBI-80" value="+duration: int" style="text;align=left;verticalAlign=top;spacingLeft=4;spacingRight=4;overflow=hidden;rotatable=0;points=[[0,0.5],[1,0.5]];portConstraint=eastwest;spacing=0;" parent="e2i2qU4APALc9A-j0tBI-78" vertex="1"><mxGeometry y="46" width="160" height="20" as="geometry"/></mxCell><mxCell id="16" value="+position: Position" style="text;align=left;verticalAlign=top;spacingLeft=4;spacingRight=4;overflow=hidden;rotatable=0;points=[[0,0.5],[1,0.5]];portConstraint=eastwest;spacing=0;" vertex="1" parent="e2i2qU4APALc9A-j0tBI-78"><mxGeometry y="66" width="160" height="20" as="geometry"/></mxCell><mxCell id="21" style="edgeStyle=orthogonalEdgeStyle;rounded=0;orthogonalLoop=1;jettySize=auto;html=1;" edge="1" parent="WIyWlLk6GJQsqaUBKTNV-1" source="16" target="8"><mxGeometry relative="1" as="geometry"/></mxCell><mxCell id="zkfFHV4jXpPFQw0GAbJ--0" value="BattleMap" style="swimlane;fontStyle=2;align=center;verticalAlign=top;childLayout=stackLayout;horizontal=1;startSize=26;horizontalStack=0;resizeParent=1;resizeLast=0;collapsible=1;marginBottom=0;rounded=0;shadow=0;strokeWidth=1;" parent="WIyWlLk6GJQsqaUBKTNV-1" vertex="1"><mxGeometry x="160" y="-350" width="180" height="114" as="geometry"><mxRectangle x="230" y="140" width="160" height="26" as="alternateBounds"/></mxGeometry></mxCell><mxCell id="e2i2qU4APALc9A-j0tBI-72" value="+info: MapInfo" style="text;align=left;verticalAlign=top;spacingLeft=4;spacingRight=4;overflow=hidden;rotatable=0;points=[[0,0.5],[1,0.5]];portConstraint=eastwest;spacing=0;" parent="zkfFHV4jXpPFQw0GAbJ--0" vertex="1"><mxGeometry y="26" width="180" height="20" as="geometry"/></mxCell><mxCell id="e2i2qU4APALc9A-j0tBI-71" value="+tiles: 2DArray&lt;Tile&gt;" style="text;align=left;verticalAlign=top;spacingLeft=4;spacingRight=4;overflow=hidden;rotatable=0;points=[[0,0.5],[1,0.5]];portConstraint=eastwest;spacing=0;" parent="zkfFHV4jXpPFQw0GAbJ--0" vertex="1"><mxGeometry y="46" width="180" height="20" as="geometry"/></mxCell><mxCell id="zkfFHV4jXpPFQw0GAbJ--4" value="" style="line;html=1;strokeWidth=1;align=left;verticalAlign=middle;spacingTop=-1;spacingLeft=3;spacingRight=3;rotatable=0;labelPosition=right;points=[];portConstraint=eastwest;" parent="zkfFHV4jXpPFQw0GAbJ--0" vertex="1"><mxGeometry y="66" width="180" height="8" as="geometry"/></mxCell><mxCell id="e2i2qU4APALc9A-j0tBI-104" value="+restart(): void" style="text;align=left;verticalAlign=top;spacingLeft=4;spacingRight=4;overflow=hidden;rotatable=0;points=[[0,0.5],[1,0.5]];portConstraint=eastwest;spacing=0;" parent="zkfFHV4jXpPFQw0GAbJ--0" vertex="1"><mxGeometry y="74" width="180" height="20" as="geometry"/></mxCell><mxCell id="7N_UdTAp0qMkY1RBXTl0-9" value="MapInfo" style="swimlane;fontStyle=2;align=center;verticalAlign=top;childLayout=stackLayout;horizontal=1;startSize=26;horizontalStack=0;resizeParent=1;resizeLast=0;collapsible=1;marginBottom=0;rounded=0;shadow=0;strokeWidth=1;" parent="WIyWlLk6GJQsqaUBKTNV-1" vertex="1"><mxGeometry x="30" y="-160" width="180" height="72" as="geometry"><mxRectangle x="230" y="140" width="160" height="26" as="alternateBounds"/></mxGeometry></mxCell><mxCell id="7N_UdTAp0qMkY1RBXTl0-10" value="+name: String" style="text;align=left;verticalAlign=top;spacingLeft=4;spacingRight=4;overflow=hidden;rotatable=0;points=[[0,0.5],[1,0.5]];portConstraint=eastwest;spacing=0;" parent="7N_UdTAp0qMkY1RBXTl0-9" vertex="1"><mxGeometry y="26" width="180" height="20" as="geometry"/></mxCell><mxCell id="7N_UdTAp0qMkY1RBXTl0-12" value="+design: 2DArray&lt;EnumTile&gt;" style="text;align=left;verticalAlign=top;spacingLeft=4;spacingRight=4;overflow=hidden;rotatable=0;points=[[0,0.5],[1,0.5]];portConstraint=eastwest;spacing=0;" parent="7N_UdTAp0qMkY1RBXTl0-9" vertex="1"><mxGeometry y="46" width="180" height="20" as="geometry"/></mxCell><mxCell id="zkfFHV4jXpPFQw0GAbJ--17" value="Tile" style="swimlane;fontStyle=0;align=center;verticalAlign=top;childLayout=stackLayout;horizontal=1;startSize=26;horizontalStack=0;resizeParent=1;resizeLast=0;collapsible=1;marginBottom=0;rounded=0;shadow=0;strokeWidth=1;" parent="WIyWlLk6GJQsqaUBKTNV-1" vertex="1"><mxGeometry x="280" y="-160" width="206" height="100" as="geometry"><mxRectangle x="550" y="140" width="160" height="26" as="alternateBounds"/></mxGeometry></mxCell><mxCell id="e2i2qU4APALc9A-j0tBI-76" value="+id: EnumTile" style="text;align=left;verticalAlign=top;spacingLeft=4;spacingRight=4;overflow=hidden;rotatable=0;points=[[0,0.5],[1,0.5]];portConstraint=eastwest;spacing=0;" parent="zkfFHV4jXpPFQw0GAbJ--17" vertex="1"><mxGeometry y="26" width="206" height="20" as="geometry"/></mxCell><mxCell id="e2i2qU4APALc9A-j0tBI-88" value="+neighbors: Array&lt;Tile&gt;" style="text;align=left;verticalAlign=top;spacingLeft=4;spacingRight=4;overflow=hidden;rotatable=0;points=[[0,0.5],[1,0.5]];portConstraint=eastwest;spacing=0;" parent="zkfFHV4jXpPFQw0GAbJ--17" vertex="1"><mxGeometry y="46" width="206" height="20" as="geometry"/></mxCell><mxCell id="zkfFHV4jXpPFQw0GAbJ--23" value="" style="line;html=1;strokeWidth=1;align=left;verticalAlign=middle;spacingTop=-1;spacingLeft=3;spacingRight=3;rotatable=0;labelPosition=right;points=[];portConstraint=eastwest;" parent="zkfFHV4jXpPFQw0GAbJ--17" vertex="1"><mxGeometry y="66" width="206" height="8" as="geometry"/></mxCell><mxCell id="e2i2qU4APALc9A-j0tBI-87" value="+surroundings(): Array&lt;Tile&gt;" style="text;align=left;verticalAlign=top;spacingLeft=4;spacingRight=4;overflow=hidden;rotatable=0;points=[[0,0.5],[1,0.5]];portConstraint=eastwest;spacing=0;" parent="zkfFHV4jXpPFQw0GAbJ--17" vertex="1"><mxGeometry y="74" width="206" height="20" as="geometry"/></mxCell><mxCell id="8" value="Position" style="swimlane;fontStyle=2;align=center;verticalAlign=top;childLayout=stackLayout;horizontal=1;startSize=26;horizontalStack=0;resizeParent=1;resizeLast=0;collapsible=1;marginBottom=0;rounded=0;shadow=0;strokeWidth=1;" vertex="1" parent="WIyWlLk6GJQsqaUBKTNV-1"><mxGeometry x="-140" y="-160" width="120" height="90" as="geometry"><mxRectangle x="230" y="140" width="160" height="26" as="alternateBounds"/></mxGeometry></mxCell><mxCell id="10" value="+x: int" style="text;align=left;verticalAlign=top;spacingLeft=4;spacingRight=4;overflow=hidden;rotatable=0;points=[[0,0.5],[1,0.5]];portConstraint=eastwest;spacing=0;" vertex="1" parent="8"><mxGeometry y="26" width="120" height="20" as="geometry"/></mxCell><mxCell id="11" value="+y: int" style="text;align=left;verticalAlign=top;spacingLeft=4;spacingRight=4;overflow=hidden;rotatable=0;points=[[0,0.5],[1,0.5]];portConstraint=eastwest;spacing=0;" vertex="1" parent="8"><mxGeometry y="46" width="120" height="20" as="geometry"/></mxCell></root></mxGraphModel></diagram></mxfile>